<svg width="128" height="128" viewBox="0 0 128 128" fill="none" xmlns="http://www.w3.org/2000/svg">
<g id="Group">
<path id="Vector" d="M0 128H128L0 0V128Z" fill="#618138"/>
<path id="Vector_2" d="M0 0.00360107L128 128V0.00360107H0Z" fill="#8FA63C"/>
<g id="Group_2">
<path id="Vector_3" d="M80.6096 57.4011C79.8857 58.7247 78.9241 59.7471 77.7326 60.4736C76.5331 61.1975 75.1461 61.681 73.5742 61.9346C71.9996 62.1909 70.3643 62.3124 68.6656 62.3124H57.1469V42.1045H68.6656C70.3643 42.1045 71.9996 42.234 73.5742 42.4823C75.1461 42.7333 76.5331 43.2247 77.7326 43.9459C78.9267 44.6698 79.8857 45.6922 80.6096 47.0158C81.3335 48.3368 81.6954 50.0698 81.6954 52.2098C81.6954 54.355 81.3335 56.0828 80.6096 57.4011ZM92.3079 44.7121C91.5153 42.2974 90.2499 40.1495 88.5168 38.2685C86.7811 36.3901 84.5302 34.871 81.7667 33.7218C79.0007 32.5805 75.6455 32.0019 71.7064 32.0019H34.4952V42.1098H43.6732V62.3177H34.4952V72.4256H43.6732V96.0019H57.1469V72.4256H71.7064C75.6455 72.4256 79.0007 71.8497 81.7667 70.7031C84.5302 69.5538 86.7837 68.0427 88.5168 66.159C90.2525 64.278 91.518 62.1143 92.3079 59.6758C93.1084 57.2347 93.5047 54.746 93.5047 52.2177C93.5047 49.6234 93.1084 47.1241 92.3079 44.7121Z" fill="white"/>
</g>
</g>
</svg>
